<svg width="14" height="14" viewBox="0 0 14 14" fill="none" xmlns="http://www.w3.org/2000/svg">
<path d="M4.66667 9.69231V10.7692H2.33333V11.8462H4.66667V12.9231H0V14H7V8.61539H0V9.69231H4.66667ZM0 2.15385V3.23077H4.66667V4.30769H1.16667C0.857247 4.30769 0.560501 4.36442 0.341709 4.4654C0.122916 4.56638 0 4.70335 0 4.84615V7.53846H7V6.46154H2.33333V5.38462H5.83333C6.14275 5.38462 6.4395 5.32789 6.65829 5.2269C6.87708 5.12592 7 4.98896 7 4.84615V2.69231C7 2.5495 6.87708 2.41254 6.65829 2.31156C6.4395 2.21058 6.14275 2.15385 5.83333 2.15385H0Z" fill="black"/>
</svg>
