<svg width="64" height="64" viewBox="0 0 64 64" fill="none" xmlns="http://www.w3.org/2000/svg">
<g clip-path="url(#clip0_4_2)">
<path d="M53.3333 40.8889H58.6667L62.2222 30.2222H56.8889L53.3333 40.8889Z" fill="#414042"/>
<path d="M51.5556 33.7778C51.5556 33.7778 46.2222 26.6667 44.4444 26.6667H28.4444L17.7778 35.5556L6.96711 38.7022C5.86489 39.088 4.38933 39.8329 4.19377 40.8889L-3.12239e-06 58.6667C-0.222225 59.8151 0.796441 60.4444 1.77777 60.4444H62.2222C62.6937 60.4444 63.1459 60.2571 63.4793 59.9237C63.8127 59.5903 64 59.1382 64 58.6667V37.3333C64 33.7778 51.5556 33.7778 51.5556 33.7778Z" fill="#F4900C"/>
<path d="M28.6116 35.5556L19.5556 60.4444H40.8889L49.7778 35.5556H28.6116Z" fill="#3B88C3"/>
<path d="M14.2222 62.2222C18.1496 62.2222 21.3333 59.0385 21.3333 55.1111C21.3333 51.1838 18.1496 48 14.2222 48C10.2949 48 7.11111 51.1838 7.11111 55.1111C7.11111 59.0385 10.2949 62.2222 14.2222 62.2222Z" fill="#292F33"/>
<path d="M14.2222 58.6667C16.1859 58.6667 17.7778 57.0748 17.7778 55.1111C17.7778 53.1474 16.1859 51.5556 14.2222 51.5556C12.2585 51.5556 10.6667 53.1474 10.6667 55.1111C10.6667 57.0748 12.2585 58.6667 14.2222 58.6667Z" fill="#58595B"/>
<path d="M51.5556 62.2222C55.4829 62.2222 58.6667 59.0385 58.6667 55.1111C58.6667 51.1838 55.4829 48 51.5556 48C47.6282 48 44.4444 51.1838 44.4444 55.1111C44.4444 59.0385 47.6282 62.2222 51.5556 62.2222Z" fill="#292F33"/>
<path d="M51.5556 58.6667C53.5192 58.6667 55.1111 57.0748 55.1111 55.1111C55.1111 53.1474 53.5192 51.5556 51.5556 51.5556C49.5919 51.5556 48 53.1474 48 55.1111C48 57.0748 49.5919 58.6667 51.5556 58.6667Z" fill="#58595B"/>
<path d="M34.6667 53.3333C38.1031 53.3333 40.8889 50.5475 40.8889 47.1111C40.8889 43.6747 38.1031 40.8889 34.6667 40.8889C31.2302 40.8889 28.4444 43.6747 28.4444 47.1111C28.4444 50.5475 31.2302 53.3333 34.6667 53.3333Z" fill="white"/>
<path d="M37.4311 44.8747C37.4311 45.6587 37.0933 46.3431 36.4107 46.7804C37.3067 47.1893 37.9289 48.0231 37.9289 49.0098C37.9289 50.5031 36.5618 51.76 34.7929 51.76C32.9493 51.76 31.8027 50.4018 31.8027 49.4204C31.8027 48.9351 32.3129 48.5867 32.7609 48.5867C33.6089 48.5867 33.408 50.0409 34.816 50.0409C34.9691 50.0435 35.1213 50.0155 35.2634 49.9585C35.4056 49.9015 35.535 49.8168 35.6439 49.7091C35.7529 49.6015 35.8392 49.4732 35.8979 49.3317C35.9567 49.1902 35.9865 49.0385 35.9858 48.8853C35.9858 47.1431 33.8685 48.4231 33.8685 46.9547C33.8685 45.6498 35.6373 46.5316 35.6373 45.1484C35.6373 44.6756 35.3031 44.3147 34.7396 44.3147C33.5573 44.3147 33.7191 45.5342 32.8729 45.5342C32.3609 45.5342 32.0622 45.0756 32.0622 44.6133C32.0622 43.6409 33.3956 42.5956 34.7769 42.5956C36.5707 42.5973 37.4311 43.9058 37.4311 44.8747V44.8747Z" fill="#231F20"/>
<path d="M53.3333 32L55.1111 30.2222L64 28.4444V32H53.3333Z" fill="#F4900C"/>
<path d="M30.2222 28.4444H44.4445V35.5556H21.3333L30.2222 28.4444Z" fill="#88C9F9"/>
<path d="M10.6667 42.6667C10.6667 43.1382 10.4794 43.5903 10.146 43.9237C9.81257 44.2571 9.36039 44.4444 8.88889 44.4444H5.33334C4.86184 44.4444 4.40965 44.2571 4.07626 43.9237C3.74286 43.5903 3.55556 43.1382 3.55556 42.6667C3.55556 42.1952 3.74286 41.743 4.07626 41.4096C4.40965 41.0762 4.86184 40.8889 5.33334 40.8889H8.88889C9.36039 40.8889 9.81257 41.0762 10.146 41.4096C10.4794 41.743 10.6667 42.1952 10.6667 42.6667Z" fill="#FFCC4D"/>
<path d="M64 39.1111H62.2222C61.7507 39.1111 61.2985 39.2984 60.9651 39.6318C60.6317 39.9652 60.4444 40.4174 60.4444 40.8889V42.6667C60.4444 43.1382 60.6317 43.5904 60.9651 43.9238C61.2985 44.2571 61.7507 44.4444 62.2222 44.4444H64V39.1111Z" fill="#DD2E44"/>
</g>
<defs>
<clipPath id="clip0_4_2">
<rect width="64" height="64" fill="white"/>
</clipPath>
</defs>
</svg>
