<svg width="64" height="64" viewBox="0 0 64 64" fill="none" xmlns="http://www.w3.org/2000/svg">
<g clip-path="url(#clip0_5_131)">
<path d="M46.594 50.28C46.594 57.857 39.969 64.003 31.797 64.003C23.626 64.003 17.001 57.857 17.001 50.28V13.724C17.001 6.14701 23.626 0.00300598 31.796 0.00300598C39.968 0.00300598 46.593 6.14701 46.593 13.724V50.28H46.594Z" fill="#BFC7CB"/>
<path d="M44.46 48.716C44.46 55.654 38.836 61.278 31.896 61.278C24.958 61.278 19.332 55.654 19.332 48.716V15.246C19.332 8.30801 24.958 2.68201 31.896 2.68201C38.836 2.68201 44.46 8.30801 44.46 15.246V48.716Z" fill="#1F2E35"/>
<path d="M26.849 48.714V15.246C26.849 9.615 30.555 4.851 35.655 3.253C34.4386 2.87289 33.1714 2.68002 31.897 2.681C24.959 2.681 19.333 8.307 19.333 15.245V48.713C19.333 55.653 24.959 61.277 31.897 61.277C33.206 61.277 34.469 61.077 35.655 60.704C30.555 59.109 26.849 54.343 26.849 48.714" fill="#152228"/>
</g>
<defs>
<clipPath id="clip0_5_131">
<rect width="64" height="64" fill="white"/>
</clipPath>
</defs>
</svg>
